<svg
  xmlns="http://www.w3.org/2000/svg"
  viewBox="0 0 32.36 32.36"
>
  <defs>
    <clipPath id="a" transform="translate(-.06)">
      <path fill="none" d="M0 0h32.42v32.36H0z" />
    </clipPath>
  </defs>
  <g clip-path="url(#a)">
    <path
      d="M29.28 0H16.42a3.09 3.09 0 0 0-3.09 3.09v22.33a1.24 1.24 0 0 1-1.24 1.24H6.94a1.24 1.24 0 0 1-1.24-1.24v-5.15A1.24 1.24 0 0 1 6.94 19h5.41v-5.67H3.09A3.09 3.09 0 0 0 0 16.42v12.85a3.09 3.09 0 0 0 3.09 3.09h12.85a3.13 3.13 0 0 0 3.13-3.13V6.95a1.24 1.24 0 0 1 1.24-1.24h5.14a1.24 1.24 0 0 1 1.24 1.24v5.14a1.24 1.24 0 0 1-1.24 1.24h-5.46V19h9.28a3.09 3.09 0 0 0 3.09-3.09V3.09A3.09 3.09 0 0 0 29.28 0"
      fill="#fff"
    />
  </g>
</svg>
