<svg viewBox="0 0 429.25 77.33" xmlns="http://www.w3.org/2000/svg" xmlns:xlink="http://www.w3.org/1999/xlink"><clipPath id="a" transform="translate(-.34)"><path d="m0 0h429.59v77.33h-429.59z"/></clipPath><g clip-path="url(#a)"><path d="m69.41 0h-30.34a7.29 7.29 0 0 0 -7.29 7.29v52.71a2.92 2.92 0 0 1 -2.92 2.92h-12.13a2.91 2.91 0 0 1 -2.92-2.92v-12.17a2.91 2.91 0 0 1 2.91-2.92h12.77v-13.47h-21.86a7.29 7.29 0 0 0 -7.29 7.29v30.33a7.29 7.29 0 0 0 7.29 7.29h30.24a7.38 7.38 0 0 0 7.38-7.35v-52.61a2.92 2.92 0 0 1 2.92-2.92h12.13a2.91 2.91 0 0 1 2.92 2.91v12.14a2.92 2.92 0 0 1 -2.92 2.92h-12.79v13.47h21.89a7.29 7.29 0 0 0 7.29-7.29v-30.33a7.29 7.29 0 0 0 -7.28-7.29" fill="#ffffff" transform="translate(-.34)"/><g fill="#ffffff"><path d="m289 76.33h-6.48q0-7.68-1.07-22.23t-1.14-17.44h-.31q-3.44 11.21-8.73 24.34t-5.27 15.33h-4.65q0-2.41-4.93-15.63t-6.25-17.7q-1.31-4.48-1.8-6.34h-.37q-.1 4.72-1.36 19.06t-1.25 20.61h-5.93q0-.35 2.34-19t2.34-25.9h9.07q0 3.79 5.51 19t5.52 18.37h.34q0-3.21 6.2-18.42t6.2-18.9h8.85q0 7.27 1.59 25.78t1.58 19.07" transform="translate(-.34)"/><path d="m321.39 76.3-5.34.21a13.74 13.74 0 0 1 -.49-3.17h-.34a16.71 16.71 0 0 1 -11.13 3.86q-6 0-8.67-2.88t-2.71-11.59q0-1.24.07-3.69t.07-3.34q0-5.07-.59-11.93l6.41-.24q-.41 6.65-.41 11.37 0 10.86 1.4 14.15t6.29 3.29a14.48 14.48 0 0 0 9.1-2.76q0-19.15-.35-25.81h6.18c-.18 4.32-.26 10.05-.26 17.68a148.36 148.36 0 0 0 .76 14.85" transform="translate(-.34)"/><path d="m345.19 71.58-.41 4.48a15 15 0 0 1 -5.14 1q-6.2 0-8.48-3.15t-2.28-11.29c0-3.51 0-8.6.05-14.25-1.29 0-.82.08-5.63.22l-.3-4.82c4.54.05 4.61.08 6.34.08 0-1.38.13-4.21.36-9.38l5.41-.55c-.39 4.83-.61 7.78-.61 9.87q3.38 0 9.92-.35l-.24 5.14q-6.2-.21-10-.21c0 3.47-.05 7.88-.05 12.22q0 7.1 1.5 9.39t5.56 2.29a17.13 17.13 0 0 0 4-.69" transform="translate(-.34)"/><path d="m376.73 76.3-5.34.21a13.65 13.65 0 0 1 -.48-3.17h-.34a16.7 16.7 0 0 1 -11.13 3.86q-6 0-8.67-2.88t-2.71-11.59q0-1.24.07-3.69c0-1.63.07-2.75.07-3.34q0-5.07-.59-11.93l6.41-.24q-.42 6.65-.41 11.37 0 10.86 1.4 14.15t6.29 3.29a14.47 14.47 0 0 0 9.1-2.76q0-19.15-.34-25.81l6.2-.24q-.26 6.47-.26 17.92a147.67 147.67 0 0 0 .76 14.85" transform="translate(-.34)"/><path d="m401.16 69.65q-.17-5.24-.17-9.41a38.11 38.11 0 0 0 -9.85 1q-5.65 1.72-5.65 6.58 0 4.69 6.62 4.69 5.69 0 9.06-2.82m6.1 6.68-5.41.21a13.31 13.31 0 0 1 -.42-3.2h-.34q-4.24 3.86-11.54 3.86a10.46 10.46 0 0 1 -6.83-2.33 8.05 8.05 0 0 1 -2.86-6.63 10 10 0 0 1 4.48-8.53q4.48-3.22 16.64-3.39a15.53 15.53 0 0 0 .11-1.9c0-2.82-.76-4.71-2.26-5.65s-3.84-1.46-6.84-1.46a42.72 42.72 0 0 0 -10.65 1.34l.59-4.76a43.23 43.23 0 0 1 11.89-1.48q6.14 0 9.48 2.53t3.34 8.63q0 1.63-.16 5.88t-.15 5.66a60.18 60.18 0 0 0 .93 11.17" transform="translate(-.34)"/><path d="m417.93 76.33h-6.61q.62-11.37.62-25.71a210 210 0 0 0 -1-22.78l7-.34q-.65 9.38-.65 23.12 0 14.16.65 25.71" transform="translate(-.34)"/><path d="m425.82 71.14c0-.5-.32-.74-1-.74a3.47 3.47 0 0 0 -.62.05q0 .59 0 1.52h.35c.8 0 1.19-.28 1.19-.84m1.41 3.46h-1.11a7.39 7.39 0 0 0 -.67-1.64.88.88 0 0 0 -.75-.31h-.41v1.95h-1c0-.76.05-1.61.05-2.56s0-1.69-.05-2.33h1.79q1.72 0 1.72 1.18a1.32 1.32 0 0 1 -1 1.31v.05a1.19 1.19 0 0 1 .66.59 12.11 12.11 0 0 1 .77 1.78m1.66-2.31a3.89 3.89 0 1 0 -1.14 2.76 3.75 3.75 0 0 0 1.14-2.76m.71 0a4.58 4.58 0 0 1 -4.52 4.58 4.45 4.45 0 0 1 -3.25-1.34 4.37 4.37 0 0 1 -1.35-3.23 4.59 4.59 0 1 1 9.19 0" transform="translate(-.34)"/><path d="m119.76 45.11q0-7.37-9.79-7.38a27.87 27.87 0 0 0 -5.17.52q.37 6.51.38 14.75c.58 0 1.25.07 2 .07q12.58 0 12.58-8m8.89-1.89q0 8.23-6.12 12.17t-15 3.93c-1.08 0-1.85 0-2.31-.07q0 6.48.38 17.09h-9.69q.45-10 .45-23.47 0-12.4-.45-21.4h6c.85 0 2.48 0 4.89-.1s4.51-.1 6.27-.1a19.73 19.73 0 0 1 11.06 3q4.51 3 4.51 9" transform="translate(-.34)"/><path d="m152 56.14q0-7.93-6.75-7.93-6.44 0-7.65 8.21zm8.07.31c0 1.17-.07 2.7-.21 4.58l-22.19.38a10.11 10.11 0 0 0 3.33 6.48 10.76 10.76 0 0 0 7.51 2.59 42.64 42.64 0 0 0 11-1.56l-.69 6.69a34.93 34.93 0 0 1 -11.82 1.72q-8.89 0-13.63-5a16.85 16.85 0 0 1 -4.74-12 19.27 19.27 0 0 1 4.49-12.73q4.5-5.39 12.49-5.39 7.3 0 10.85 4a14.86 14.86 0 0 1 3.54 10.24" transform="translate(-.34)"/><path d="m195.24 76.33h-9.17q.76-8.72.76-17.64c0-3.61-.53-6-1.6-7.34a6 6 0 0 0 -4.87-1.93 12.08 12.08 0 0 0 -7.45 2.69q.17 13.44.17 24.23h-8.88c.42-7.19.59-10 .59-14.11 0-5.49-.42-13.57-1.54-18.44l8.31-.91.59 3.65h.55a16.16 16.16 0 0 1 10.85-4.06 13.42 13.42 0 0 1 8.51 2.53q3.19 2.5 3.19 9.22c0 .67 0 1.56-.09 2.67s-.08 2.26-.08 3.43q0 4.65.17 16.06" transform="translate(-.34)"/><path d="m230.39 76.33h-9.17q.76-8.72.76-17.64c0-3.61-.53-6-1.6-7.34a6 6 0 0 0 -4.87-1.93 12.08 12.08 0 0 0 -7.45 2.69q.17 13.44.17 24.23h-8.88c.42-7.19.59-10 .59-14.11 0-5.49-.42-13.57-1.54-18.44l8.31-.91.59 3.65h.55a16.15 16.15 0 0 1 10.85-4.06 13.42 13.42 0 0 1 8.5 2.53q3.19 2.5 3.19 9.22c0 .67 0 1.56-.09 2.67s-.08 2.26-.08 3.43q0 4.65.17 16.06" transform="translate(-.34)"/></g></g></svg>